<svg width="300" height="300" viewBox="0 0 300 300" fill="none" xmlns="http://www.w3.org/2000/svg">
<path d="M154.916 22.1311C228.254 22.1311 287.702 81.5792 287.702 154.917C287.702 228.255 228.254 287.703 154.916 287.703C81.5783 287.703 22.1302 228.255 22.1302 154.917C22.1302 81.5792 81.5783 22.1311 154.916 22.1311ZM154.916 9.83405C74.9112 9.83405 9.83314 74.9121 9.83314 154.917C9.83314 234.922 74.9112 300 154.916 300C234.921 300 299.999 234.922 299.999 154.917C299.999 74.9121 234.903 9.83405 154.916 9.83405Z" fill="#F0F2EE"/>
<path d="M152.455 19.6677C225.793 19.6677 285.241 79.1158 285.241 152.454C285.241 225.791 225.793 285.24 152.455 285.24C79.1172 285.24 19.6691 225.791 19.6691 152.454C19.6691 79.1158 79.1172 19.6677 152.455 19.6677ZM152.455 7.37061C72.4501 7.37061 7.37207 72.4487 7.37207 152.454C7.37207 232.458 72.4501 297.537 152.455 297.537C232.46 297.537 297.538 232.458 297.538 152.454C297.538 72.4487 232.441 7.37061 152.455 7.37061Z" fill="#F0F2EE"/>
<path d="M149.991 17.2046C223.329 17.2046 282.777 76.6527 282.777 149.991C282.777 223.328 223.329 282.776 149.991 282.776C76.6536 282.776 17.2055 223.328 17.2055 149.991C17.2055 76.6527 76.6536 17.2046 149.991 17.2046ZM149.991 4.90753C69.9865 4.90753 4.90843 69.9856 4.90843 149.991C4.90843 229.995 69.9865 295.074 149.991 295.074C229.996 295.074 295.074 229.995 295.074 149.991C295.074 69.9856 229.978 4.90753 149.991 4.90753Z" fill="#F0F2EE"/>
<path d="M147.546 14.7604C220.884 14.7604 280.332 74.2085 280.332 147.546C280.332 220.884 220.884 280.332 147.546 280.332C74.2081 280.332 14.7599 220.884 14.7599 147.546C14.7599 74.2085 74.2081 14.7604 147.546 14.7604ZM147.546 2.46338C67.541 2.46338 2.46289 67.5415 2.46289 147.546C2.46289 227.551 67.541 292.629 147.546 292.629C227.551 292.629 292.629 227.551 292.629 147.546C292.629 67.5415 227.532 2.46338 147.546 2.46338Z" fill="#F0F2EE"/>
<path d="M145.083 12.2971C218.421 12.2971 277.869 71.7452 277.869 145.083C277.869 218.421 218.421 277.869 145.083 277.869C71.7452 277.869 12.2971 218.421 12.2971 145.083C12.2971 71.7452 71.7452 12.2971 145.083 12.2971ZM145.083 0C65.0781 0 0 65.0781 0 145.083C0 225.088 65.0781 290.166 145.083 290.166C225.088 290.166 290.166 225.088 290.166 145.083C290.166 65.0781 225.069 0 145.083 0Z" fill="#F0F2EE"/>
<path d="M145.083 277.869C218.419 277.869 277.869 218.419 277.869 145.083C277.869 71.7473 218.419 12.2971 145.083 12.2971C71.7474 12.2971 12.2971 71.7473 12.2971 145.083C12.2971 218.419 71.7474 277.869 145.083 277.869Z" fill="#0A0A0A"/>
<path d="M236.051 136.897C232.273 136.897 229.051 134.008 228.718 130.175C227.866 120.637 224.199 102.136 209.346 85.5053C194.641 69.0598 176.881 63.3187 167.584 61.3556C163.603 60.5223 161.047 56.5961 161.88 52.6144C162.714 48.6141 166.677 46.0769 170.621 46.9103C181.678 49.2438 202.827 56.0775 220.328 75.6713C238.033 95.4689 242.385 117.489 243.404 128.86C243.774 132.916 240.774 136.508 236.718 136.86C236.496 136.879 236.274 136.897 236.051 136.897Z" fill="#F0F2EE"/>
</svg>
