<svg width="300" height="300" viewBox="0 0 300 300" fill="none" xmlns="http://www.w3.org/2000/svg">
<path d="M154.916 22.1312C228.255 22.1312 287.703 81.5795 287.703 154.918C287.703 228.256 228.255 287.704 154.916 287.704C81.5783 287.704 22.13 228.256 22.13 154.918C22.13 81.5795 81.5783 22.1312 154.916 22.1312ZM154.916 9.83415C74.9112 9.83415 9.83291 74.9124 9.83291 154.918C9.83291 234.923 74.9112 300.001 154.916 300.001C234.922 300.001 300 234.923 300 154.918C300 74.9124 234.903 9.83415 154.916 9.83415Z" fill="#0A0A0A"/>
<path d="M152.456 19.6678C225.794 19.6678 285.242 79.116 285.242 152.454C285.242 225.792 225.794 285.24 152.456 285.24C79.1174 285.24 19.6691 225.792 19.6691 152.454C19.6691 79.116 79.1174 19.6678 152.456 19.6678ZM152.456 7.3707C72.4503 7.3707 7.37196 72.4489 7.37196 152.454C7.37196 232.459 72.4503 297.537 152.456 297.537C232.461 297.537 297.539 232.459 297.539 152.454C297.539 72.4489 232.442 7.3707 152.456 7.3707Z" fill="#0A0A0A"/>
<path d="M149.992 17.2048C223.33 17.2048 282.778 76.6531 282.778 149.991C282.778 223.329 223.33 282.777 149.992 282.777C76.6536 282.777 17.2053 223.329 17.2053 149.991C17.2053 76.6531 76.6536 17.2048 149.992 17.2048ZM149.992 4.90771C69.9865 4.90771 4.9082 69.986 4.9082 149.991C4.9082 229.996 69.9865 295.074 149.992 295.074C229.997 295.074 295.075 229.996 295.075 149.991C295.075 69.986 229.978 4.90771 149.992 4.90771Z" fill="#0A0A0A"/>
<path d="M147.546 14.7605C220.885 14.7605 280.333 74.2087 280.333 147.547C280.333 220.885 220.885 280.333 147.546 280.333C74.2083 280.333 14.76 220.885 14.76 147.547C14.76 74.2087 74.2083 14.7605 147.546 14.7605ZM147.546 2.46338C67.5412 2.46338 2.46289 67.5416 2.46289 147.547C2.46289 227.552 67.5412 292.63 147.546 292.63C227.552 292.63 292.63 227.552 292.63 147.547C292.63 67.5416 227.533 2.46338 147.546 2.46338Z" fill="#0A0A0A"/>
<path d="M145.084 12.2971C218.422 12.2971 277.87 71.7454 277.87 145.083C277.87 218.421 218.422 277.87 145.084 277.87C71.7454 277.87 12.2971 218.421 12.2971 145.083C12.2971 71.7454 71.7454 12.2971 145.084 12.2971ZM145.084 0C65.0783 0 0 65.0783 0 145.083C0 225.089 65.0783 290.167 145.084 290.167C225.089 290.167 290.167 225.089 290.167 145.083C290.167 65.0783 225.07 0 145.084 0Z" fill="#0A0A0A"/>
<path d="M145.084 277.87C218.419 277.87 277.87 218.419 277.87 145.083C277.87 71.7476 218.419 12.2971 145.084 12.2971C71.7476 12.2971 12.2971 71.7476 12.2971 145.083C12.2971 218.419 71.7476 277.87 145.084 277.87Z" fill="#EEF1EE"/>
<path d="M236.053 136.898C232.275 136.898 229.053 134.009 228.72 130.175C227.868 120.637 224.201 102.136 209.348 85.5055C194.643 69.06 176.883 63.3189 167.586 61.3558C163.604 60.5224 161.049 56.5962 161.882 52.6145C162.715 48.6142 166.679 46.077 170.623 46.9104C181.68 49.2439 202.829 56.0777 220.33 75.6715C238.035 95.4691 242.387 117.489 243.406 128.86C243.776 132.916 240.776 136.509 236.72 136.861C236.498 136.879 236.276 136.898 236.053 136.898Z" fill="#0A0A0A"/>
</svg>
