<svg width="450" height="450" viewBox="0 0 450 450" fill="none" xmlns="http://www.w3.org/2000/svg">
<path d="M224.601 445.292C165.651 445.292 110.23 422.338 68.5478 380.656C26.8659 338.968 3.91211 283.547 3.91211 224.599C3.91211 165.65 26.8659 110.235 68.5478 68.5537C110.236 26.8656 165.651 3.91211 224.601 3.91211C283.55 3.91211 338.972 26.8656 380.654 68.5472C422.336 110.229 445.29 165.65 445.29 224.599C445.29 283.547 422.336 338.968 380.654 380.65C338.972 422.331 283.55 445.285 224.601 445.285V445.292Z" fill="#47120D"/>
<path d="M224.601 7.82507C344.326 7.82507 441.377 104.882 441.377 224.599C441.377 344.316 344.32 441.373 224.601 441.373C104.883 441.373 7.82515 344.323 7.82515 224.599C7.82515 104.875 104.883 7.82507 224.601 7.82507ZM224.601 0C194.285 0 164.869 5.94053 137.175 17.652C110.426 28.9658 86.4092 45.1572 65.7834 65.7827C45.1576 86.4083 28.9661 110.425 17.6522 137.173C5.94059 164.868 0 194.283 0 224.599C0 254.915 5.94059 284.33 17.6522 312.025C28.9661 338.773 45.1576 362.79 65.7834 383.415C86.4092 404.041 110.426 420.232 137.175 431.546C164.869 443.257 194.285 449.198 224.601 449.198C254.917 449.198 284.333 443.257 312.028 431.546C338.777 420.232 362.793 404.041 383.419 383.415C404.045 362.79 420.237 338.773 431.55 312.025C443.262 284.33 449.203 254.915 449.203 224.599C449.203 194.283 443.262 164.868 431.55 137.173C420.237 110.425 404.045 86.4083 383.419 65.7827C362.793 45.1572 338.777 28.9658 312.028 17.652C284.333 5.94053 254.924 0 224.601 0Z" fill="#1D1D1B"/>
<path d="M224.6 7.82413C344.325 7.82413 441.376 104.881 441.376 224.598C441.376 344.315 344.319 441.372 224.6 441.372C104.882 441.372 7.82419 344.322 7.82419 224.598C7.82419 104.875 104.882 7.82413 224.6 7.82413ZM224.6 2.60742C194.637 2.60742 165.56 8.47622 138.191 20.0573C111.755 31.2406 88.0124 47.2429 67.6279 67.6272C47.2434 88.0115 31.2344 111.754 20.0575 138.19C8.4828 165.564 2.60742 194.635 2.60742 224.598C2.60742 254.562 8.47628 283.638 20.0575 311.006C31.2409 337.442 47.2434 361.185 67.6279 381.569C88.0124 401.953 111.755 417.962 138.191 429.139C165.566 440.713 194.637 446.589 224.6 446.589C254.564 446.589 283.641 440.72 311.01 429.139C337.445 417.955 361.188 401.953 381.573 381.569C401.957 361.185 417.966 337.442 429.143 311.006C440.718 283.632 446.593 254.562 446.593 224.598C446.593 194.635 440.724 165.558 429.143 138.19C417.96 111.754 401.957 88.0115 381.573 67.6272C361.188 47.2429 337.445 31.2341 311.01 20.0573C283.635 8.48274 254.564 2.60742 224.6 2.60742Z" fill="#F0F2EE"/>
<path d="M224.6 441.38C153.268 441.953 83.4477 404.66 43.8786 345.353C-53.4402 200.498 50.0083 5.69934 224.6 5.2168C399.218 5.69282 502.66 200.491 405.329 345.353C365.753 404.654 295.933 441.947 224.6 441.373V441.38ZM224.6 441.38C378.312 441.445 482.811 283.887 423.242 142.325C396.251 77.24 335.633 27.7008 266.4 14.496C167.444 -5.81003 64.5369 48.9785 25.9459 142.318C-33.623 283.88 70.8818 441.451 224.6 441.373V441.38Z" fill="#7F170E"/>
<path d="M224.601 435.016C155.361 435.57 87.5824 399.379 49.1675 341.819C-45.3408 201.196 55.0885 12.045 224.601 11.582C394.139 12.045 494.562 201.19 400.041 341.826C361.613 399.379 293.84 435.577 224.601 435.016ZM224.601 435.016C339.298 435.903 435.332 339.244 433.708 224.6C433.663 110.595 338.574 16.1206 224.601 16.7922C110.94 15.8923 15.2911 110.889 15.4867 224.6C13.8695 339.231 109.904 435.916 224.607 435.016H224.601Z" fill="#7F170E"/>
<path d="M224.6 428.658C157.447 429.199 91.7227 394.103 54.4554 338.285C-37.2423 201.887 60.1612 18.3959 224.6 17.9395C389.059 18.3894 486.462 201.881 394.751 338.291C357.478 394.097 291.753 429.199 224.6 428.658ZM224.6 428.658C335.828 429.518 428.947 335.774 427.343 224.599C427.278 114.083 335.085 22.5041 224.6 23.1496C114.416 22.2758 21.6811 114.364 21.8441 224.599C20.253 335.761 113.372 429.525 224.6 428.651V428.658Z" fill="#7F170E"/>
<path d="M224.601 422.292C159.541 422.82 95.8639 388.814 59.7443 334.749C-29.1428 202.584 65.2415 24.7396 224.601 24.3027C383.986 24.7396 478.364 202.577 389.463 334.756C353.337 388.82 289.66 422.827 224.601 422.292ZM224.601 422.292C332.359 423.12 422.557 332.297 420.986 224.598C420.901 117.565 331.603 28.8804 224.601 29.5129C117.892 28.6587 28.0655 117.838 28.2025 224.598C26.644 332.291 116.842 423.133 224.601 422.292Z" fill="#7F170E"/>
<path d="M224.6 415.936C161.634 416.444 99.9977 383.54 65.0323 331.216C-21.0443 203.277 70.3143 31.0925 224.6 30.6621C378.905 31.086 470.271 203.27 384.174 331.223C349.196 383.54 287.573 416.451 224.6 415.936ZM224.6 415.936C328.89 416.738 416.166 328.83 414.627 224.6C414.529 121.055 328.114 35.2593 224.6 35.8723C121.367 35.0441 34.449 121.316 34.5664 224.6C33.034 328.823 120.31 416.744 224.6 415.936Z" fill="#7F170E"/>
<path d="M224.599 409.577C163.72 410.072 104.138 378.264 70.3201 327.688C-12.9525 203.967 75.3934 37.4362 224.599 37.0254C357.568 36.9602 447.91 173.305 396.277 295.716C368.386 363.526 297.967 410.457 224.599 409.577ZM224.599 409.577C325.413 410.346 409.775 325.366 408.262 224.605C408.145 124.542 324.624 41.6422 224.599 42.2421C124.842 41.4401 40.8323 124.803 40.9236 224.612C39.4238 325.366 123.779 410.366 224.599 409.583V409.577Z" fill="#7F170E"/>
<path d="M224.6 403.212C165.813 403.695 108.279 372.981 75.609 324.146C-4.85306 204.664 80.4736 43.7871 224.6 43.3828C353.05 43.3176 440.3 175.04 390.395 293.276C363.451 358.753 295.444 404.06 224.6 403.212ZM224.6 403.212C321.945 403.955 403.385 321.89 401.905 224.598C401.768 128.024 321.143 48.0127 224.6 48.593C128.318 47.817 47.2233 128.265 47.282 224.598C45.8083 321.883 127.248 403.962 224.6 403.212Z" fill="#7F170E"/>
<path d="M224.6 396.856C156.28 397.671 90.6859 353.981 64.6868 290.839C16.5296 176.789 100.683 49.6966 224.6 49.7422C348.531 49.6835 432.691 176.782 384.52 290.839C358.515 353.974 292.927 397.671 224.6 396.849V396.856ZM224.6 396.856C318.476 397.573 396.995 318.422 395.541 224.606C395.384 131.514 317.654 54.4046 224.6 54.9589C131.951 54.0982 53.4969 131.886 53.6469 224.606C52.2057 318.422 130.718 397.58 224.6 396.856Z" fill="#7F170E"/>
<path d="M224.601 390.49C158.798 391.279 95.6227 349.206 70.5626 288.399C24.14 178.529 105.202 56.0598 224.601 56.1055C344.012 56.0533 425.087 178.522 378.645 288.406C353.579 349.206 290.41 391.286 224.601 390.49ZM224.601 390.49C315.007 391.175 390.605 314.946 389.183 224.599C389.014 134.995 314.173 60.7744 224.601 61.3157C135.42 60.4875 59.8878 135.354 60.0052 224.599C58.5902 314.946 134.188 391.181 224.601 390.49Z" fill="#7F170E"/>
<path d="M224.6 384.132C161.314 384.888 100.558 344.439 76.4435 285.966C31.7489 180.263 109.72 62.4238 224.6 62.4629C339.492 62.4107 417.477 180.256 372.762 285.973C348.635 344.439 287.886 384.895 224.593 384.132H224.6ZM224.6 384.132C311.537 384.79 384.213 311.483 382.818 224.598C382.629 138.477 310.683 67.1514 224.593 67.6731C138.882 66.871 66.2708 138.823 66.3621 224.598C64.9797 311.476 137.656 384.79 224.593 384.125L224.6 384.132Z" fill="#7F170E"/>
<path d="M224.6 377.768C163.838 378.499 105.495 339.667 82.3193 283.528C39.3527 182.005 114.246 68.789 224.6 68.8281C334.974 68.7825 409.867 182.005 366.887 283.541C343.705 339.667 285.362 378.512 224.6 377.775V377.768ZM224.6 377.768C308.068 378.394 377.823 308.008 376.46 224.599C376.251 141.966 307.201 73.5297 224.6 74.0383C142.358 73.2689 72.6683 142.292 72.727 224.606C71.3706 308.014 141.132 378.407 224.6 377.775V377.768Z" fill="#7F170E"/>
<path d="M224.6 371.41C166.354 372.114 110.431 334.893 88.1943 281.102C46.9558 183.745 118.758 75.153 224.6 75.1856C330.454 75.1399 402.263 183.739 361.012 281.102C338.769 334.893 282.845 372.114 224.6 371.41ZM224.6 371.41C304.599 372.01 371.432 304.538 370.102 224.599C369.874 145.448 303.718 79.9067 224.6 80.3958C145.826 79.6524 79.0584 145.761 79.0845 224.599C77.7608 304.532 144.594 372.01 224.6 371.41Z" fill="#7F170E"/>
<path d="M224.6 365.052C178.36 365.443 133.118 341.316 107.341 302.947C43.7352 208.824 110.934 81.8757 224.6 81.5431C302.545 80.9432 367.683 146.706 366.36 224.598C366.464 301.238 301.183 365.88 224.6 365.045V365.052ZM224.6 365.052C301.13 365.619 365.042 301.069 363.738 224.605C363.497 148.943 300.231 86.2969 224.6 86.7598C149.433 85.9513 85.3455 149.373 85.4498 224.605C84.1521 301.069 148.071 365.626 224.6 365.052Z" fill="#7F170E"/>
<path d="M224.6 358.688C180.447 359.06 137.252 336.034 112.629 299.413C51.8338 209.516 116.007 88.2211 224.6 87.9081C299.076 87.3408 361.292 150.183 360.001 224.606C360.073 297.783 297.726 359.49 224.6 358.695V358.688ZM224.6 358.688C297.654 359.229 358.651 297.6 357.38 224.599C357.119 152.426 296.741 92.6684 224.6 93.1183C152.896 92.3423 91.742 152.837 91.8073 224.599C90.5422 297.594 151.539 359.229 224.6 358.688Z" fill="#7F170E"/>
<path d="M224.6 352.33C182.54 352.688 141.393 330.758 117.918 295.878C59.9333 210.213 121.087 94.5653 224.6 94.2654C295.607 93.7241 354.902 153.651 353.637 224.598C353.676 294.313 294.257 353.086 224.6 352.323V352.33ZM224.6 352.33C294.186 352.838 352.268 294.131 351.016 224.598C350.866 156.083 293.071 98.9148 224.594 99.4756C156.352 98.7322 98.133 156.292 98.1657 224.598C96.9267 294.124 155.009 352.838 224.594 352.323L224.6 352.33Z" fill="#7F170E"/>
<path d="M224.601 345.966C184.634 346.312 145.534 325.471 123.207 292.345C68.0262 210.906 126.161 100.918 224.601 100.624C292.138 100.116 348.512 157.115 347.28 224.6C347.28 290.852 290.795 346.69 224.601 345.966ZM224.601 345.966C290.717 346.449 345.878 290.656 344.658 224.6C344.482 159.56 289.602 105.3 224.601 105.841C159.822 105.137 104.531 159.762 104.531 224.6C103.318 290.656 158.478 346.449 224.601 345.966Z" fill="#7F170E"/>
<path d="M224.6 339.607C186.727 339.94 149.668 320.195 128.495 288.81C76.1248 211.602 131.233 107.261 224.6 106.988C288.669 106.505 342.121 160.589 340.915 224.598C340.882 287.388 287.332 340.298 224.594 339.607H224.6ZM224.6 339.607C287.247 340.057 339.487 287.186 338.3 224.598C338.104 163.035 286.126 111.683 224.6 112.198C163.29 111.526 110.927 163.224 110.895 224.598C109.714 287.186 161.954 340.057 224.607 339.607H224.6Z" fill="#7F170E"/>
<path d="M224.6 333.251C181.464 333.773 140.069 306.3 123.46 266.497C92.609 194.18 145.879 113.347 224.6 113.354C303.34 113.334 356.61 194.18 325.746 266.503C309.131 306.3 267.736 333.779 224.6 333.251ZM224.6 333.251C283.777 333.675 333.095 283.725 331.935 224.606C331.713 166.518 282.643 118.081 224.6 118.57C166.752 117.931 117.323 166.694 117.252 224.613C116.098 283.731 165.422 333.688 224.6 333.257V333.251Z" fill="#7F170E"/>
<path d="M224.601 326.886C183.982 327.382 145.006 301.52 129.336 264.057C100.214 195.914 150.399 119.704 224.601 119.711C298.816 119.698 349.008 195.914 319.872 264.064C304.196 301.526 265.22 327.382 224.601 326.886ZM224.601 326.886C280.309 327.277 326.706 280.249 325.578 224.599C325.33 169.987 279.175 124.458 224.601 124.921C170.216 124.315 123.715 170.15 123.611 224.599C122.489 280.249 168.892 327.284 224.601 326.886Z" fill="#7F170E"/>
<path d="M224.6 320.528C186.505 320.991 149.948 296.753 135.211 261.625C107.823 197.655 154.911 126.075 224.6 126.068C294.296 126.055 341.397 197.655 313.996 261.625C299.258 296.746 262.702 320.991 224.6 320.521V320.528ZM224.6 320.528C262.5 320.913 298.854 296.355 312.47 260.999C331.876 213.148 308.153 157.564 260.348 138.289C182.892 107.256 106.245 183.211 136.717 261.005C150.339 296.355 186.7 320.919 224.6 320.528Z" fill="#7F170E"/>
<path d="M224.601 314.164C189.022 314.601 154.885 291.98 141.093 259.193C115.433 199.403 159.437 132.44 224.601 132.434C289.778 132.427 333.788 199.397 308.121 259.2C294.323 291.987 260.185 314.608 224.601 314.171V314.164ZM224.601 314.164C259.977 314.523 293.918 291.582 306.595 258.561C324.652 213.919 302.5 162.123 257.916 144.165C185.716 115.258 114.246 186.029 142.593 258.567C155.276 291.582 189.218 314.529 224.594 314.164H224.601Z" fill="#7F170E"/>
<path d="M224.601 307.806C149.857 307.375 112.166 218.026 164.184 164.183C196.684 130.483 252.523 130.47 285.024 164.177C337.061 218.013 299.337 307.382 224.601 307.806ZM224.601 307.806C257.466 308.138 288.969 286.802 300.752 256.141C322.037 202.604 282.187 143.87 224.601 144.001C167.105 143.766 127.086 202.689 148.442 256.147C160.232 286.802 191.735 308.138 224.601 307.806Z" fill="#7F170E"/>
<path d="M224.6 301.441C155.524 301.05 120.643 218.483 168.683 168.676C198.751 137.454 250.462 137.441 280.531 168.67C328.59 218.47 293.67 301.057 224.6 301.441ZM224.6 301.441C254.949 301.748 284.032 282.029 294.877 253.709C314.479 204.43 277.577 150.15 224.6 150.365C171.618 150.144 134.696 204.424 154.317 253.715C165.168 282.035 194.252 301.754 224.6 301.448V301.441Z" fill="#7F170E"/>
<path d="M224.601 295.083C161.191 294.731 129.115 218.946 173.177 173.182C200.813 144.431 248.396 144.418 276.032 173.175C320.114 218.939 288.004 294.744 224.601 295.09V295.083ZM224.601 295.083C252.426 295.357 279.09 277.255 288.996 251.276C306.863 206.165 273.058 156.528 224.595 156.73C176.124 156.521 142.307 206.158 160.187 251.283C170.099 277.262 196.763 295.364 224.595 295.09L224.601 295.083Z" fill="#7F170E"/>
<path d="M224.6 288.725C166.863 288.412 137.591 219.415 177.675 177.681C202.872 151.408 246.334 151.395 271.531 177.674C311.635 219.402 282.336 288.425 224.6 288.725ZM224.6 288.725C249.907 288.973 274.152 272.488 283.119 248.843C299.258 207.899 268.544 162.898 224.6 163.087C180.642 162.892 149.922 207.886 166.074 248.843C175.047 272.488 199.292 288.973 224.6 288.725Z" fill="#7F170E"/>
<path d="M224.6 282.362C172.531 282.095 146.062 219.872 182.175 182.175C204.94 158.374 244.268 158.361 267.039 182.168C303.165 219.859 276.67 282.101 224.607 282.362H224.6ZM224.6 282.362C247.391 282.584 269.217 267.716 277.244 246.406C291.649 209.621 264.039 169.27 224.6 169.446C185.155 169.257 157.532 209.615 171.95 246.412C179.978 267.723 201.81 282.584 224.6 282.368V282.362Z" fill="#7F170E"/>
<path d="M224.601 276.004C187.796 276.121 162.052 238.613 175.426 204.235C182.932 184.3 203.264 170.365 224.601 170.593C245.898 170.333 266.315 184.32 273.788 204.228C287.176 238.606 261.405 276.128 224.601 276.004ZM224.601 276.004C244.868 276.245 264.281 262.923 271.369 243.973C284.033 211.31 259.553 175.699 224.601 175.81C189.635 175.693 165.149 211.297 177.826 243.98C184.914 262.923 204.327 276.251 224.601 276.004Z" fill="#7F170E"/>
<path d="M259.736 224.599C263.838 224.155 267.953 224.149 272.054 224.599C267.953 225.049 263.838 225.042 259.736 224.599Z" fill="#F0F2EE"/>
<path d="M259.436 229.189C263.563 229.274 267.639 229.802 271.649 230.781C267.522 230.696 263.446 230.161 259.436 229.189Z" fill="#F0F2EE"/>
<path d="M258.574 233.584C262.656 234.197 266.634 235.24 270.488 236.727C266.406 236.114 262.428 235.064 258.574 233.584Z" fill="#F0F2EE"/>
<path d="M257.186 237.764C261.157 238.892 264.972 240.424 268.604 242.38C264.632 241.259 260.824 239.713 257.186 237.764Z" fill="#F0F2EE"/>
<path d="M255.301 241.695C259.102 243.306 262.696 245.308 266.054 247.701C262.252 246.09 258.666 244.088 255.301 241.695Z" fill="#F0F2EE"/>
<path d="M252.961 245.342C256.534 247.409 259.854 249.835 262.899 252.626C259.325 250.565 256.013 248.126 252.961 245.342Z" fill="#F0F2EE"/>
<path d="M250.195 248.666C253.488 251.15 256.488 253.968 259.168 257.104C255.869 254.62 252.882 251.803 250.195 248.666Z" fill="#F0F2EE"/>
<path d="M247.053 251.627C250.02 254.496 252.654 257.652 254.93 261.095C251.963 258.226 249.335 255.063 247.053 251.627Z" fill="#F0F2EE"/>
<path d="M243.564 254.184C246.16 257.392 248.383 260.854 250.222 264.545C247.627 261.337 245.403 257.874 243.564 254.184Z" fill="#F0F2EE"/>
<path d="M239.768 256.297C241.946 259.805 243.726 263.509 245.095 267.402C242.917 263.894 241.143 260.19 239.768 256.297Z" fill="#F0F2EE"/>
<path d="M235.705 257.939C237.427 261.695 238.724 265.588 239.598 269.625C237.877 265.875 236.579 261.969 235.705 257.939Z" fill="#F0F2EE"/>
<path d="M231.416 259.074C232.642 263.013 233.438 267.049 233.79 271.164C232.557 267.225 231.768 263.189 231.416 259.074Z" fill="#F0F2EE"/>
<path d="M226.916 259.654C227.626 263.723 227.894 267.825 227.711 271.946C226.994 267.877 226.733 263.775 226.916 259.654Z" fill="#F0F2EE"/>
<path d="M222.287 259.654C222.469 263.775 222.202 267.884 221.491 271.946C221.309 267.825 221.576 263.717 222.287 259.654Z" fill="#F0F2EE"/>
<path d="M217.794 259.074C217.441 263.189 216.652 267.219 215.42 271.164C215.766 267.049 216.561 263.019 217.794 259.074Z" fill="#F0F2EE"/>
<path d="M213.497 257.939C212.623 261.976 211.332 265.875 209.604 269.625C210.471 265.588 211.775 261.689 213.497 257.939Z" fill="#F0F2EE"/>
<path d="M209.439 256.297C208.07 260.19 206.296 263.9 204.111 267.402C205.481 263.509 207.261 259.799 209.439 256.297Z" fill="#F0F2EE"/>
<path d="M205.644 254.184C203.799 257.881 201.582 261.337 198.986 264.545C200.825 260.848 203.049 257.392 205.644 254.184Z" fill="#F0F2EE"/>
<path d="M202.155 251.627C199.872 255.07 197.251 258.233 194.277 261.095C196.553 257.652 199.188 254.496 202.155 251.627Z" fill="#F0F2EE"/>
<path d="M199.012 248.666C196.332 251.803 193.339 254.62 190.039 257.104C192.719 253.968 195.719 251.15 199.012 248.666Z" fill="#F0F2EE"/>
<path d="M196.248 245.342C193.203 248.126 189.891 250.559 186.311 252.626C189.356 249.835 192.675 247.409 196.248 245.342Z" fill="#F0F2EE"/>
<path d="M193.907 241.695C190.543 244.088 186.956 246.09 183.154 247.701C186.519 245.308 190.106 243.306 193.907 241.695Z" fill="#F0F2EE"/>
<path d="M192.022 237.764C188.383 239.72 184.575 241.259 180.604 242.38C184.242 240.424 188.05 238.885 192.022 237.764Z" fill="#F0F2EE"/>
<path d="M190.633 233.584C186.779 235.064 182.807 236.114 178.719 236.727C182.573 235.247 186.55 234.203 190.633 233.584Z" fill="#F0F2EE"/>
<path d="M189.766 229.189C185.756 230.161 181.68 230.696 177.553 230.781C181.563 229.802 185.639 229.274 189.766 229.189Z" fill="#F0F2EE"/>
<path d="M189.472 224.599C185.371 225.042 181.256 225.049 177.154 224.599C181.256 224.149 185.371 224.155 189.472 224.599Z" fill="#F0F2EE"/>
<path d="M189.472 224.599C185.371 225.042 181.256 225.049 177.154 224.599C181.256 224.149 185.371 224.155 189.472 224.599Z" fill="#F0F2EE"/>
<path d="M189.766 220.015C185.639 219.93 181.563 219.402 177.553 218.424C181.68 218.509 185.756 219.043 189.766 220.015Z" fill="#F0F2EE"/>
<path d="M190.633 215.612C186.55 214.999 182.573 213.956 178.719 212.469C182.801 213.082 186.779 214.132 190.633 215.612Z" fill="#F0F2EE"/>
<path d="M192.022 211.433C188.05 210.305 184.236 208.773 180.604 206.816C184.575 207.938 188.383 209.483 192.022 211.433Z" fill="#F0F2EE"/>
<path d="M193.907 207.5C190.106 205.889 186.513 203.887 183.154 201.494C186.956 203.105 190.543 205.107 193.907 207.5Z" fill="#F0F2EE"/>
<path d="M196.248 203.856C192.675 201.789 189.356 199.363 186.311 196.572C189.884 198.633 193.197 201.072 196.248 203.856Z" fill="#F0F2EE"/>
<path d="M199.012 200.536C195.719 198.051 192.719 195.234 190.039 192.098C193.339 194.582 196.325 197.399 199.012 200.536Z" fill="#F0F2EE"/>
<path d="M202.155 197.576C199.188 194.707 196.553 191.55 194.277 188.107C197.251 190.977 199.872 194.139 202.155 197.576Z" fill="#F0F2EE"/>
<path d="M205.644 195.02C203.049 191.812 200.825 188.349 198.986 184.658C201.582 187.866 203.805 191.329 205.644 195.02Z" fill="#F0F2EE"/>
<path d="M209.439 192.9C207.261 189.392 205.481 185.688 204.111 181.795C206.289 185.303 208.063 189.007 209.439 192.9Z" fill="#F0F2EE"/>
<path d="M213.497 191.258C211.775 187.502 210.477 183.609 209.604 179.572C211.325 183.322 212.623 187.228 213.497 191.258Z" fill="#F0F2EE"/>
<path d="M217.794 190.129C216.568 186.19 215.772 182.154 215.42 178.039C216.652 181.978 217.441 186.014 217.794 190.129Z" fill="#F0F2EE"/>
<path d="M222.287 189.542C221.576 185.473 221.309 181.371 221.491 177.25C222.208 181.319 222.469 185.421 222.287 189.542Z" fill="#F0F2EE"/>
<path d="M226.915 189.542C226.732 185.421 227 181.313 227.711 177.25C227.893 181.371 227.626 185.473 226.915 189.542Z" fill="#F0F2EE"/>
<path d="M231.416 190.129C231.768 186.014 232.557 181.984 233.79 178.039C233.444 182.154 232.648 186.184 231.416 190.129Z" fill="#F0F2EE"/>
<path d="M235.705 191.258C236.579 187.221 237.87 183.322 239.598 179.572C238.731 183.609 237.427 187.508 235.705 191.258Z" fill="#F0F2EE"/>
<path d="M239.768 192.9C241.137 189.007 242.911 185.297 245.095 181.795C243.726 185.688 241.946 189.392 239.768 192.9Z" fill="#F0F2EE"/>
<path d="M243.564 195.02C245.41 191.329 247.627 187.866 250.222 184.658C248.383 188.356 246.16 191.812 243.564 195.02Z" fill="#F0F2EE"/>
<path d="M247.053 197.576C249.335 194.133 251.957 190.97 254.93 188.107C252.654 191.55 250.02 194.707 247.053 197.576Z" fill="#F0F2EE"/>
<path d="M250.195 200.536C252.875 197.399 255.869 194.582 259.168 192.098C256.488 195.241 253.488 198.051 250.195 200.536Z" fill="#F0F2EE"/>
<path d="M252.961 203.856C256.006 201.072 259.319 198.639 262.899 196.572C259.854 199.363 256.534 201.789 252.961 203.856Z" fill="#F0F2EE"/>
<path d="M255.301 207.5C258.666 205.107 262.252 203.105 266.054 201.494C262.689 203.887 259.102 205.889 255.301 207.5Z" fill="#F0F2EE"/>
<path d="M257.186 211.433C260.824 209.477 264.632 207.938 268.604 206.816C264.965 208.773 261.157 210.312 257.186 211.433Z" fill="#F0F2EE"/>
<path d="M258.574 215.612C262.428 214.132 266.399 213.082 270.488 212.469C266.634 213.949 262.656 214.992 258.574 215.612Z" fill="#F0F2EE"/>
<path d="M259.436 220.015C263.446 219.043 267.522 218.509 271.649 218.424C267.639 219.402 263.563 219.93 259.436 220.015Z" fill="#F0F2EE"/>
<path d="M259.736 224.599C263.838 224.155 267.953 224.149 272.054 224.599C267.953 225.049 263.838 225.042 259.736 224.599Z" fill="#F0F2EE"/>
<path d="M224.6 254.888C207.9 254.888 194.316 241.305 194.316 224.605C194.316 207.905 207.9 194.322 224.6 194.322C241.3 194.322 254.883 207.905 254.883 224.605C254.883 241.305 241.3 254.888 224.6 254.888Z" fill="#47120D"/>
<path d="M224.6 197.576C239.527 197.576 251.623 209.672 251.623 224.598C251.623 239.524 239.527 251.621 224.6 251.621C209.674 251.621 197.578 239.524 197.578 224.598C197.578 209.672 209.674 197.576 224.6 197.576ZM224.6 191.055C206.1 191.055 191.057 206.105 191.057 224.598C191.057 243.091 206.107 258.142 224.6 258.142C243.094 258.142 258.144 243.091 258.144 224.598C258.144 206.105 243.094 191.055 224.6 191.055Z" fill="#1D1D1B"/>
<path d="M224.601 197.576C239.528 197.576 251.624 209.673 251.624 224.599C251.624 239.525 239.528 251.621 224.601 251.621C209.675 251.621 197.578 239.525 197.578 224.599C197.578 209.673 209.675 197.576 224.601 197.576ZM224.601 193.012C207.184 193.012 193.014 207.182 193.014 224.599C193.014 242.016 207.184 256.186 224.601 256.186C242.019 256.186 256.189 242.016 256.189 224.599C256.189 207.182 242.019 193.012 224.601 193.012Z" fill="#F0F2EE"/>
<path d="M224.6 197.575C239.527 197.575 251.623 209.672 251.623 224.598C251.623 239.524 239.527 251.621 224.6 251.621C209.674 251.621 197.577 239.524 197.577 224.598C197.577 209.672 209.674 197.575 224.6 197.575ZM224.6 195.619C208.617 195.619 195.621 208.622 195.621 224.598C195.621 240.574 208.624 253.577 224.6 253.577C240.577 253.577 253.579 240.574 253.579 224.598C253.579 208.622 240.577 195.619 224.6 195.619Z" fill="#1D1D1B"/>
<path d="M224.601 239.961C216.13 239.961 209.244 233.069 209.244 224.605C209.244 216.141 216.137 209.248 224.601 209.248C233.065 209.248 239.958 216.141 239.958 224.605C239.958 233.069 233.065 239.961 224.601 239.961Z" fill="#F0F2EE"/>
<path d="M224.602 213.806C230.562 213.806 235.394 218.638 235.394 224.598C235.394 230.558 230.562 235.39 224.602 235.39C218.642 235.39 213.81 230.558 213.81 224.598C213.81 218.638 218.642 213.806 224.602 213.806ZM224.602 211.523C217.39 211.523 211.527 217.392 211.527 224.598C211.527 231.81 217.396 237.672 224.602 237.672C231.808 237.672 237.676 231.803 237.676 224.598C237.676 217.392 231.808 211.523 224.602 211.523Z" fill="#1D1D1B"/>
<path d="M224.601 235.391C230.561 235.391 235.393 230.559 235.393 224.599C235.393 218.638 230.561 213.807 224.601 213.807C218.64 213.807 213.809 218.638 213.809 224.599C213.809 230.559 218.64 235.391 224.601 235.391Z" fill="#F0F2EE"/>
<path d="M226.557 217.211C227.13 217.335 228.852 217.772 230.274 219.363C231.708 220.973 231.943 222.754 232.002 223.341" fill="#F0F2EE"/>
<path d="M226.557 217.211C227.13 217.335 228.852 217.772 230.274 219.363C231.708 220.973 231.943 222.754 232.002 223.341" stroke="#0A0A0A" stroke-width="3" stroke-miterlimit="10" stroke-linecap="round"/>
</svg>
